<svg xmlns="http://www.w3.org/2000/svg" viewBox="0 0 256 256" role="img" aria-label="IP camera">
  <defs>
    <linearGradient id="cam-body" x1="0" y1="0" x2="1" y2="1"><stop offset="0" stop-color="#f8fafc"/><stop offset="0.55" stop-color="#d8e0e8"/><stop offset="1" stop-color="#96a3b2"/></linearGradient>
    <radialGradient id="cam-lens"><stop offset="0" stop-color="#8fe8ff"/><stop offset=".18" stop-color="#15344d"/><stop offset=".58" stop-color="#0b1118"/><stop offset="1" stop-color="#020407"/></radialGradient>
    <linearGradient id="cam-arm" x1="0" y1="0" x2="0" y2="1"><stop offset="0" stop-color="#7f8b99"/><stop offset="1" stop-color="#404b59"/></linearGradient>
  </defs>
  <ellipse cx="129" cy="205" rx="79" ry="17" fill="#101827" opacity=".18"/>
  <path d="M154 153 199 178l-13 23-51-28 19-20Z" fill="url(#cam-arm)" stroke="#354154" stroke-width="5" stroke-linejoin="round"/>
  <path d="M184 190h36v16c0 10-8 18-18 18s-18-8-18-18v-16Z" fill="#aab5c2" stroke="#4b5968" stroke-width="5"/>
  <path d="M57 81c0-20 16-36 36-36h54c29 0 52 23 52 52v33c0 29-23 52-52 52H93c-20 0-36-16-36-36V81Z" fill="#4c5969" stroke="#303b49" stroke-width="5"/>
  <path d="M64 80c0-16 13-28 28-28h52c27 0 48 21 48 48v28c0 27-21 48-48 48H92c-15 0-28-12-28-28V80Z" fill="url(#cam-body)"/>
  <circle cx="141" cy="113" r="42" fill="#596676" stroke="#fff" stroke-opacity=".7" stroke-width="5"/>
  <circle cx="141" cy="113" r="31" fill="url(#cam-lens)" stroke="#1b2733" stroke-width="5"/>
  <circle cx="132" cy="103" r="7" fill="#fff" opacity=".72"/>
  <circle cx="178" cy="76" r="6" fill="#62e26f" stroke="#2b8d41" stroke-width="2"/>
  <path d="M70 65h28" stroke="#fff" stroke-width="6" stroke-linecap="round" opacity=".45"/>
</svg>
